PathFileType	4	(X/Y/Z)	C:/Users/beibeiliu/ov580/test_trc/User2\sequence.30_training_dense_right.trc
DataRate	CameraRate	NumFrames	NumMarkers	Units	OrigDataRate	OrigDataStartFrame	OrigNumFrames
120	120	12	19	mm	120	27	78
Frame#	Time	ThumbCMC			ThumbMCP			ThumbIP			ThumbTip			IndexMCP			IndexPIP			IndexTip			MiddleMCP			MiddlePIP			MiddleTip			RingMCP			RingPIP			RingTip			PinkyMCP			PinkyPIP			PinkyTip			BackHand1			BackHand2			BackHand3	
		X0	Y0	Z0	X1	Y1	Z1	X2	Y2	Z2	X3	Y3	Z3	X4	Y4	Z4	X5	Y5	Z5	X6	Y6	Z6	X7	Y7	Z7	X8	Y8	Z8	X9	Y9	Z9	X10	Y10	Z10	X11	Y11	Z11	X12	Y12	Z12	X13	Y13	Z13	X14	Y14	Z14	X15	Y15	Z15	X16	Y16	Z16	X17	Y17	Z17	X18	Y18	Z18	
26	0.216667	149.714	108.135	-11.4497	137.534	134.76	-29.6131	108.432	138.917	-52.0697	87.2707	113.585	-56.5603	137.01	114.263	-89.4266	125.762	123.604	-113.331	115.713	139.891	-137.615	122.656	97.7886	-99.034	109.447	112.549	-128.433	98.0248	124.398	-152.636	104.419	85.1437	-97.8004	95.0597	96.4632	-120.276	83.6475	107.003	-144.176	84.0629	69.73	-79.8163	78.0227	83.9115	-100.226	70.1957	91.9054	-120.519	120.847	57.8232	-46.3581	130.02	41.2845	-19.4933	153.691	71.2967	-30.7084	
27	0.225	146.908	109.963	-6.48871	129.922	137.773	-27.3571	98.4106	132.771	-54.2806	81.9977	108.084	-55.4092	132.442	117.533	-89.9938	126.122	130.552	-111.415	116.474	145.354	-136.743	120.314	101.504	-99.7204	109.149	114.062	-127.475	99.5041	131.738	-154.498	102.576	81.6034	-94.528	95.5177	96.3347	-119.149	82.8761	106.335	-144.914	85.5169	68.0947	-79.9477	74.3346	76.1866	-100.745	70.6226	91.4005	-124.586	120.083	57.6324	-49.6058	135.659	41.85	-19.7131	150.226	76.1632	-34.2465	
28	0.233333	143.144	107.178	-10.7774	125.675	132.661	-31.9931	96.6036	128.848	-51.1402	79.265	102.401	-54.4776	131.256	119.138	-92.2515	124.148	131.554	-111.824	111.773	147.447	-137.92	116.021	100.074	-101.533	106.445	114.099	-125.548	93.6896	128.454	-153.821	97.9182	82.4194	-97.5283	88.6067	91.5001	-119.412	78.7102	104.697	-141.97	81.1534	67.0564	-79.4796	70.759	76.5903	-101.365	62.6684	82.9642	-121.495	119.376	55.4942	-48.5786	131.477	38.5888	-21.4986	148.99	76.2599	-36.1865	
29	0.241667	144.221	99.8824	-13.1353	126.516	128.135	-32.4825	93.1897	125.386	-55.3083	79.4997	95.091	-53.062	124.732	112.44	-96.5105	119.003	125.941	-114.99	106.994	141.069	-136.38	109.047	94.4178	-105.013	96.2889	109.658	-128.992	85.1476	128.066	-154.194	91.0538	76.7526	-95.7276	80.7005	89.4451	-120.161	70.4315	103.565	-142.829	75.871	63.6161	-77.1361	61.9112	72.8445	-100.358	52.9502	78.104	-118.873	114.275	50.93	-51.5028	127.998	32.6672	-24.6661	148.273	69.5016	-36.2786	
30	0.25	146.612	95.8521	-21.4174	127.826	122.205	-40.5564	95.0944	118.905	-56.2208	78.6554	94.1664	-54.2431	127.062	107.448	-98.5244	113.945	120.15	-120.532	103.681	135.185	-139.459	105.118	88.3916	-106.738	91.0698	104.492	-132.079	75.0121	120.964	-153.671	86.1359	71.839	-99.6569	75.7092	84.6651	-120.554	58.051	97.9473	-143.682	72.3507	60.7411	-78.6519	58.2078	71.4317	-99.2241	46.7416	76.2964	-117.187	111.082	44.7066	-52.5177	125.713	30.6878	-28.4034	146.984	61.0092	-41.9424	
31	0.258333	146.992	90.7559	-24.8811	126.418	117.156	-46.728	94.2455	113.484	-60.7973	75.5772	86.7671	-57.7033	123.207	97.4612	-101.945	113.185	115.478	-125.319	98.3582	129.962	-144.621	101.948	81.9811	-111.475	86.1656	97.191	-133.479	70.1681	118.255	-156.101	83.6505	67.9339	-102.349	68.6889	78.407	-122.571	56.8614	94.1147	-141.379	67.6131	54.7393	-79.2853	53.865	66.4598	-98.1546	41.4218	75.7155	-118.353	110.678	42.0372	-55.3552	127.978	25.8904	-29.4285	143.198	54.3125	-45.8605	
32	0.266667	148.526	90.9902	-25.0565	124.354	116.451	-49.9946	90.314	111.205	-66.7555	74.9237	82.7367	-60.194	122.698	93.5527	-104.102	111.45	113.407	-128.535	97.0816	125.586	-144.415	102.204	76.7397	-109.764	85.345	94.7863	-135.413	62.4678	109.508	-154.556	82.9512	61.6389	-102.076	68.1421	73.1425	-122.953	48.2088	88.3187	-142.502	68.9838	50.5475	-79.9733	49.2352	58.8365	-98.0023	35.229	73.1273	-118.827	110.439	35.2862	-55.6989	123.136	22.9063	-30.1498	142.332	52.8842	-49.8131	
33	0.275	142.106	90.9132	-26.6403	120.58	116.854	-48.3401	86.9334	109.39	-66.3973	70.8044	77.8672	-65.714	119.52	93.6207	-108.822	106.144	104.744	-128.362	87.1812	114.556	-147.033	97.5564	68.9561	-109.689	79.6064	84.858	-135.468	57.8505	99.7561	-152.922	79.1721	54.6572	-105.199	63.2075	63.1821	-123.518	43.0957	76.0265	-138.898	67.4882	42.9214	-83.5001	48.944	50.7233	-99.6152	30.5056	61.0869	-119.372	114.403	32.2756	-56.9718	127.897	23.7594	-31.8947	146.022	55.6635	-46.0896	
34	0.283333	134.442	90.157	-29.0658	111.376	112.522	-52.4957	82.8784	101.332	-66.6666	66.142	71.4396	-69.3122	111.011	84.0352	-107.432	97.8438	98.6201	-132.763	80.184	104.617	-148.907	95.3365	67.0167	-114.139	73.7677	74.9282	-134.215	45.0845	87.6855	-152.293	79.6264	48.1191	-103.77	60.4385	53.2977	-120.586	37.3709	68.6253	-140.85	67.1079	35.2229	-83.0042	45.8885	41.6733	-98.8896	29.9641	52.0623	-115.926	113.158	29.165	-53.4843	130.005	22.8673	-27.0155	142.149	55.7696	-48.0817	
35	0.291667	130.703	89.4538	-26.0543	104.813	108.526	-54.0968	75.068	97.7176	-71.1682	64.788	68.3577	-67.6109	107.93	83.4609	-110.814	90.77	87.5856	-128.728	74.1389	96.8245	-149.307	89.3421	59.8316	-114.217	66.1832	67.0589	-133.954	37.8805	74.3886	-148.895	75.6826	39.7505	-100.617	55.4383	49.295	-121.85	29.4988	57.3207	-137.67	65.149	29.5929	-84.0311	46.6778	35.4249	-95.3727	24.9892	43.8935	-111.805	116.485	28.9326	-54.9394	131.621	21.5281	-24.3383	139.979	52.7254	-46.8238	
36	0.3	127.616	90.2392	-30.0397	103.25	108.442	-50.9726	72.3596	92.0786	-73.6685	61.8922	65.6129	-70.0093	104.107	78.1735	-109.268	89.6923	87.585	-130.281	69.0944	90.0882	-148.052	89.0776	60.558	-113.52	64.4655	64.191	-131.558	36.0424	74.3838	-150.545	76.0644	39.278	-100.721	52.309	45.7415	-120.633	28.6629	55.7552	-135.794	65.8864	24.7539	-79.466	40.9355	31.1499	-98.8399	27.637	39.1186	-110.845	114.616	29.337	-53.769	131.254	23.8875	-29.3655	140.419	54.3365	-44.1044	
37	0.308333	129.673	89.2369	-26.3678	105.332	110.882	-51.71	73.3813	95.2151	-74.5579	62.8533	67.1274	-70.7659	106.795	78.9018	-107.883	90.9274	84.2972	-129.881	73.1258	94.4822	-151.49	90.3543	57.7912	-113.684	64.8146	62.6471	-133.099	36.1269	72.7211	-149.597	77.9816	39.031	-102.088	54.2344	47.3409	-122.152	33.6798	58.6407	-136.184	64.823	25.6646	-82.0237	42.6426	33.3891	-99.3044	25.9296	43.902	-114.089	116.677	26.6974	-54.0339	130.602	19.5774	-29.7794	139.766	54.4348	-49.5069	
